<?xml version="1.0" encoding="UTF-8"?>
<svg id="logo-cadwork" width="1135.9" height="189.77" version="1.1" viewBox="0 0 1135.9 189.77" xmlns="http://www.w3.org/2000/svg">
  <defs>
    <style id="cadwork-styles">
      /*
      cadwork official : #0200dd;
      cadwork 04       : #1f3c90;
      cadwork lights   : #000170;
      */

      .filled {
        fill: #000170;
      }

      .stroked {
        fill: none;
        stroke-width: 3.6;
        stroke: #000170;
      }

      @keyframes strokeEffect {
        from {
          stroke: rgba(0, 1, 112, 0);
        }
        to {
          stroke: #000170;
          stroke-dashoffset: 0;
        }
      }
      .stroked {
        stroke-dasharray: 1000;
        stroke-dashoffset: 1000;
        animation: strokeEffect 0.7s linear forwards;
      }

      #c {
        animation-delay: 0;
      }

      #a {
        animation-delay: 0.7s;
      }

      #a_in {
        animation-delay: 1.4s;
      }

      #d {
        animation-delay: 2.1s;
      }

      #d_in {
        animation-delay: 2.8s;
      }

      @keyframes slideFromRight {
        0% {
          transform: translateX(100%);
        }
        100% {
          transform: translateX(0);
        }
      }
      #w, #o, #r, #k {
        transform: translateX(100%);
        animation: slideFromRight 0.7s cubic-bezier(0.1, 0.52, 0.12, 0.995) forwards;
      }

      #w {
        animation-delay: 2.8s;
      }

      #o {
        animation-delay: 2.9s;
      }

      #r {
        animation-delay: 3s;
      }

      #k {
        animation-delay: 3.1s;
      }

      @keyframes scaleUpAndRotate {
        0% {
          transform: scale(0);
        }
        100% {
          transform: scale(1) rotateY(720deg);
        }
      }
      #group_registred {
        transform: scale(0);
        transform-origin: 98% 12%;
        animation: scaleUpAndRotate 1.5s ease forwards;
        animation-delay: 3.85s;
      }
    </style>
  </defs>
  <g id="group_cad">
    <path id="c"    class="stroked" d="m88.495 45.521c-23.898-0.12289-46.75 9.7882-62.992 27.319-2e-3 0.0019-0.0039 0.0039-0.0059 0.0058-14.955 15.997-23.516 36.75-23.516 56.798 0 16.406 5.6484 30.355 16.355 40.561 11.962 11.386 30.158 17.506 52.65 17.506 33.005 0 51.477-15.012 61.23-27.545 3e-3 -3e-3 5e-3 -7e-3 8e-3 -0.01 6.436-8.1439 11.062-17.564 13.573-27.636l0.0444-0.22044h-44.299c-0.38966 1.3397-0.96152 2.7478-1.4445 3.8191-0.94974 2.097-2.4379 4.8642-4.6409 7.6419-4.4059 5.5555-11.801 11.161-23.084 11.161-9.4258 0-15.146-3.3707-18.863-10.003s-5.1671-15.545-4.4901-23.415c0.27328-2.8601 0.78459-6.5039 1.6823-10.463 1.7943-7.9134 5.108-17.115 11.341-23.786l0.0039-4e-3c5.5173-6.0246 13.373-9.366 21.539-9.1657 11.135 0.0051 17.266 4.9018 20.298 9.914 3.0335 5.0149 3.1519 9.829 3.1519 10.55v0.22044l44.995-0.17597-8e-3 -0.18756c-0.73229-9.3604-3.6325-18.424-8.4734-26.468l-2e-3 -2e-3c-7.2768-12.05-22.212-26.414-53.414-26.414h-1.632c-3e-3 7e-6 -5e-3 7e-6 -8e-3 0z"/>
    <path id="a"    class="stroked" d="m248.1 45.297c-36.378 0-53.324 12.41-61.316 22.572-4.9877 6.5962-8.1812 14.576-8.875 22.75h44.891c-0.43629-3.8816 1.0123-6.5282 2.7636-8.6035 3.1355-3.6584 10.06-7.5469 25.137-7.5469 7.5491 0 11.893 3.2125 14.027 6.6465 2.1347 3.434 2.2226 6.8964 2.2226 7.7129 0 3.5991-1.8155 6.8704-5.0176 9.3926-4.4687 3.5198-13.789 7.3457-33.371 7.3457-20.963 0-37.591 3.2612-49.234 9.5098l-2e-3 2e-3c-14.011 7.4861-20.895 18.842-20.895 34.461 0 18.048 9.2278 27.363 20.119 32.559 10.891 5.1956 23.47 5.6122 29.33 5.6122 14.377 0 28.441-1.5027 38.748-14.079 1.0146-1.2538 2.5985-3.7244 2.5985-3.7244s0.79543 9.1082 1.3253 13.916l46.884 2e-3s-1.1279-2.9173-1.5915-4.2846c-0.79596-2.3879-1.623-5.3667-1.623-8.0918 0.53745-4.4706 1.6862-9.2016 2.5293-13.016 3.1189-15.335 13.047-57.417 16.008-71.68 0.63538-3.4487 0.98185-6.0294 0.98242-6.957v-0.0039c-9e-3 -2.6145-0.70252-12.08-10.834-20.506h-2e-3c-11.029-9.1477-29.439-13.989-54.804-13.989z"/>
    <path id="a_in" class="stroked" d="m213.81 132.25c-4.3297 3.0027-9.6605 9.5138-7.1693 18.02 6.8e-4 3e-3 1e-3 7e-3 2e-3 0.01 1.2323 3.863 5.3379 10.703 21.867 10.703 11.311 0 20.292-6.2861 26.424-18.689 2.8223-5.9428 4.8147-12.8 5.7463-19.313-8.1921 6.4415-37.287 2.6227-46.87 9.2686z"/>
    <path id="d"    class="stroked" d="m494.01 1.6289-38.981 182.11-47.159 0.14394 3.2773-12.92h-1.0214c-11.169 14.702-26.272 16.891-39.068 16.891-4.2767 0-17.257-0.79108-28.948-7.9634s-22.306-21.213-22.306-46.838c0-31.894 10.101-53.916 24.64-67.715 14.538-13.8 33.459-19.621 50.836-19.621 15.11 0 24.612 4.3689 30.169 9.4197 4.9204 4.4722 6.4104 7.7479 7.809 11.635h1.0349l14.433-65.197"/>
    <path id="d_in" class="stroked" d="m401.6 78.156c-13.58 0-21.942 8.1813-26.74 15.206-5.8692 8.6425-9.2906 20.176-9.2906 31.508 0 9.8872 2.471 17.903 6.7011 23.385 4.23 5.4826 10.17 8.5151 17.585 8.5151 10.621 0 19.606-5.1254 26.305-15.116l2e-3 -2e-3c5.7127-8.5509 9.0411-20.028 9.0411-31.359 0-9.9694-2.4146-18.056-6.5348-23.578-4.1202-5.5225-9.8804-8.5596-17.069-8.5596z"/>
  </g>
  <g id="group_work">
    <path id="w" class="filled" d="m443.34 47.446 12.806 138.08s35.946 0.18135 53.485 0.0395l38.92-83.451 2 83.451h53.35l74.25-138.12h-50.689l-39.84 84.91-2.1504-84.91h-49.471l-39.85 84.91-2.1406-84.91z"/>
    <path id="o" class="filled" d="m743.12 43.786c-50.049 0.0576-72.472 31.024-82.623 57.111-10.65 27.37-2.2897 84.68 54.57 88s90.68-31.001 96.1-70.721c5.42-39.72-16.299-71.61-60.459-74.17-2.5969-0.15094-5.1265-0.22354-7.5879-0.2207zm-3.957 36.129c0.38707 0.0056 0.77789 0.0182 1.1738 0.04102 11.07 0.64 19.491 7.3612 21.801 18.281 0.94861 5.0037 1.0092 10.135 0.17969 15.16-1.4052 8.7043-4.4139 17.072-8.8711 24.68-6.71 11.49-21.69 18.291-34.5 13.391-8.79-3.38-12.289-12.291-12.789-21.111-0.2535-5.1678 0.17935-10.347 1.2891-15.4 0.46266-2.1656 7.3316-35.396 31.717-35.041z"/>
    <path id="r" class="filled" d="m920.67 43.442c-24.238 0.54463-36.879 16.844-36.879 16.844l2.8086-12.84h-50.949l-30.619 138.14h50.939l14.439-65.391c10.27-50.32 59.24-30.76 59.24-30.76l9.6406-43.459c-6.8156-1.9462-13.028-2.6608-18.621-2.5352z"/>
    <path id="k" class="filled" d="m958.27 0.91668-40.908 184.67h51.34l8.6992-39.051 14.43-11.77 19.791 50.82h55.76l-36.371-82.779 67.93-55.352h-64.049l-44.791 41.711 19.65-88.25z"/>
  </g>
  <g id="group_registred">
    <path id="registred_r"      class="filled" d="m1107.9 10.205v21.139h1.1093v-10.27h7l7.7305 10.6 0.9395-0.64844-7.25-9.9512h1.2089c2.15-0.11 6.1504-1.3805 6.1504-5.4805 0-4.1-4.0297-5.3187-6.1797-5.3887zm1.0683 1.1094h9.5899c0.2 0 5.0703 0.2293 5.0703 4.2793s-4.8786 4.3711-5.0586 4.3711h-9.6016z"/>
    <path id="registred_circle" class="filled" d="m1115.4 0.23197c-4.7037 0.11798-9.4636 1.9343-13.359 5.8301-12.466 12.466-3.64 33.783 13.992 33.783 10.925-0.01102 19.78-8.8659 19.791-19.791 0-12.122-10.076-20.082-20.424-19.822zm0.6328 1.1426c10.308 0.01653 18.659 8.3715 18.67 18.68 0 16.646-20.125 24.977-31.891 13.205s-3.425-31.894 13.221-31.885z"/>
  </g>
</svg>
