<svg width="199" height="199" xmlns="http://www.w3.org/2000/svg" xmlns:xlink="http://www.w3.org/1999/xlink" overflow="hidden"><defs><clipPath id="clip0"><rect x="460" y="108" width="199" height="199"/></clipPath></defs><g clip-path="url(#clip0)" transform="translate(-460 -108)"><path d="M559.456 128.729C515.977 128.729 480.729 163.977 480.729 207.456 480.729 250.936 515.977 286.184 559.456 286.184 602.936 286.184 638.184 250.936 638.184 207.456 638.203 163.996 602.987 128.749 559.527 128.729 559.504 128.729 559.48 128.729 559.456 128.729ZM559.456 282.038C518.266 282.038 484.875 248.647 484.875 207.456 484.875 166.266 518.266 132.875 559.456 132.875 600.647 132.875 634.038 166.266 634.038 207.456 633.991 248.627 600.627 281.991 559.456 282.038Z"/><path d="M561.573 180.552 544.99 180.552 544.99 184.698 557.427 184.698 557.427 246.885 542.917 246.885 542.917 251.031 576.083 251.031 576.083 246.885 561.573 246.885 561.573 180.552Z"/><path d="M561.706 162.932C561.706 165.508 559.617 167.596 557.042 167.596 554.466 167.596 552.377 165.508 552.377 162.932 552.377 160.356 554.466 158.268 557.042 158.268 559.617 158.268 561.706 160.356 561.706 162.932Z"/></g></svg>