<svg width="192" height="192" xmlns="http://www.w3.org/2000/svg" xmlns:xlink="http://www.w3.org/1999/xlink" overflow="hidden"><defs><clipPath id="clip0"><rect x="126" y="114" width="192" height="192"/></clipPath></defs><g clip-path="url(#clip0)" transform="translate(-126 -114)"><path d="M280.836 266 166 151.172 166 134 146 134 146 154 154 154 154 266 146 266 146 286 166 286 166 278 278 278 278 286 298 286 298 266ZM150 138 162 138 162 150 150 150ZM162 282 150 282 150 270 162 270ZM158 266 158 238 194 238 194 274 166 274 166 266ZM198 274 198 234 158 234 158 154 163.172 154 278 268.82 278 274ZM294 282 282 282 282 270 294 270Z"/></g></svg>